<svg
  viewBox="0 0 16 16"
  xmlns="http://www.w3.org/2000/svg"
  xmlns:xlink="http://www.w3.org/1999/xlink">
  <g
    stroke="#000000"
    stroke-width="1.5"
    fill="none"
    stroke-linecap="round"
    stroke-linejoin="round">
    <path
      d="M12,10.5 L5.30901699,10.5 C5.03287462,10.5 4.80901699,10.2761424 4.80901699,10 C4.80901699,9.92237745 4.82708954,9.84582092 4.8618034,9.7763932 L5.37339598,8.75320804 C5.45194074,8.59611851 5.60714723,8.49175791 5.78226133,8.47828759 L11.6980651,8.02322576 C11.883662,8.00894908 12.0459632,7.89275256 12.1192894,7.72165817 L13.201303,5.19695965 C13.3100808,4.94314476 13.192505,4.6492053 12.9386901,4.54042748 C12.8764517,4.51375387 12.8094439,4.5 12.7417305,4.5 L4.80901699,4.5 C4.61963097,4.5 4.44649941,4.39299881 4.3618034,4.2236068 L3.6381966,2.7763932 C3.55350059,2.60700119 3.38036903,2.5 3.19098301,2.5 L1.5,2.5 L1.5,2.5"
      vector-effect="non-scaling-stroke">
    </path>
    <circle
      cx="5.5"
      cy="13.5"
      r="1"
      vector-effect="non-scaling-stroke">
    </circle>
    <circle
      cx="11.5"
      cy="13.5"
      r="1"
      vector-effect="non-scaling-stroke">
    </circle>
  </g>
</svg>
