<svg
  viewBox="0 0 16 16"
  xmlns="http://www.w3.org/2000/svg"
  xmlns:xlink="http://www.w3.org/1999/xlink">
  <g
    stroke="#000000"
    stroke-width="1.5"
    fill="none"
    stroke-linecap="round"
    stroke-linejoin="round">
    <path
      d="M3,8.5 L13,8.5 C13.2761424,8.5 13.5,8.72385763 13.5,9 L13.5,14 C13.5,14.2761424 13.2761424,14.5 13,14.5 L3,14.5 C2.72385763,14.5 2.5,14.2761424 2.5,14 L2.5,9 C2.5,8.72385763 2.72385763,8.5 3,8.5 Z"
      vector-effect="non-scaling-stroke">
    </path>
    <path
      d="M4.5,8.5 C4.5,7.33333333 4.5,6.16666667 4.5,5 C4.5,3.25 6,1.5 8,1.5 C10,1.5 11.5,3.25 11.5,5 C11.5,6.16666667 11.5,7.33333333 11.5,8.5"
      vector-effect="non-scaling-stroke">
    </path>
  </g>
</svg>
