<svg
  viewBox="0 0 16 16"
  xmlns="http://www.w3.org/2000/svg"
  xmlns:xlink="http://www.w3.org/1999/xlink">
  <g
    stroke="#000000"
    stroke-width="1.5"
    fill="none"
    stroke-linecap="round"
    stroke-linejoin="round">
    <path
      d="M2.20710678,13.2071068 L3.18580729,14.1858073 C3.39945947,14.3994835 3.69827747,14.5050803 3.99874736,14.4731015 C5.88492589,14.2723571 8.05201011,12.9479899 10.5,10.5 C12.9479745,8.05202548 14.2723404,5.88495312 14.4730977,3.99878291 C14.5050902,3.69831361 14.3994942,3.39949416 14.1858293,3.18582933 L13.2071068,2.20710678 C12.8165825,1.81658249 12.1834175,1.81658249 11.7928932,2.20710678 L10.2071068,3.79289322 C9.81658249,4.18341751 9.81658249,4.81658249 10.2071068,5.20710678 L11,6 L11,6 C11.3333333,6.33333333 10.6666667,7.33333333 9,9 C7.33333333,10.6666667 6.33333333,11.3333333 6,11 L5.20710678,10.2071068 C4.81658249,9.81658249 4.18341751,9.81658249 3.79289322,10.2071068 L2.20710678,11.7928932 C1.81658249,12.1834175 1.81658249,12.8165825 2.20710678,13.2071068 Z"
      vector-effect="non-scaling-stroke">
    </path>
  </g>
</svg>
