<svg
  viewBox="0 0 96 16"
  xmlns="http://www.w3.org/2000/svg">
  <g
    stroke="none"
    fill="#000000">
    <polygon
      points="8 12 3.29771798 14.472136 4.19577393 9.23606798 0.39154787 5.52786405 5.64885899 4.76393202 8 0 10.351141 4.76393202 15.6084521 5.52786405 11.8042261 9.23606798 12.702282 14.472136">
    </polygon>

    <polygon
      points="28 12 23.297718 14.472136 24.1957739 9.23606798 20.3915479 5.52786405 25.648859 4.76393202 28 0 30.351141 4.76393202 35.6084521 5.52786405 31.8042261 9.23606798 32.702282 14.472136">
    </polygon>

    <polygon
      points="48 12 43.297718 14.472136 44.1957739 9.23606798 40.3915479 5.52786405 45.648859 4.76393202 48 0 50.351141 4.76393202 55.6084521 5.52786405 51.8042261 9.23606798 52.702282 14.472136">
    </polygon>

    <polygon
      points="68 12 63.297718 14.472136 64.1957739 9.23606798 60.3915479 5.52786405 65.648859 4.76393202 68 0 70.351141 4.76393202 75.6084521 5.52786405 71.8042261 9.23606798 72.702282 14.472136">
    </polygon>

    <polygon
      style="opacity: .5"
      points="88 12 83.297718 14.472136 84.1957739 9.23606798 80.3915479 5.52786405 85.648859 4.76393202 88 0 90.351141 4.76393202 95.6084521 5.52786405 91.8042261 9.23606798 92.702282 14.472136">
    </polygon>
  </g>
</svg>
