<svg width="144px" height="144px" viewBox="0 0 148 148" xmlns="http://www.w3.org/2000/svg">
  <rect fill="#6600FF" x="0" y="0" width="148" height="148"></rect>
  <ellipse fill="#FFFFFF" cx="74" cy="74" rx="64" ry="40"></ellipse>
  <g stroke="#6600FF" stroke-width="6" fill="none">
    <polyline points="28 58 28 88 42 88"></polyline>
    <path d="M64,74 C64,65 64,59 56,59 C48,59 48,65 48,74 C48,83 48,89 56,89 C64,89 64,83 64,74 Z"></path>
    <path d="M92,67 C92,62 89,59 84,59 C76,59 76,65 76,74 C76,83 76,89 84,89 C89,89 92,84 92,75 L92,91 L92,75 L84,75"></path>
    <path d="M120,74 C120,65 120,59 112,59 C104,59 104,65 104,74 C104,83 104,89 112,89 C120,89 120,83 120,74 Z"></path>
  </g>
</svg>
